<svg width="31" height="17" fill="none" xmlns="http://www.w3.org/2000/svg"><path fill-rule="evenodd" clip-rule="evenodd" d="M30.054 11.637c-.322.43-.643.912-1.018 1.287l-3.375 3.379c-.429.429-.857.858-1.5.59-.536-.215-.536-.805-.536-1.34 0-.108 0-.162-.054-.484-.696 1.341-1.821 1.395-3 1.395-5.946 0-11.892-.054-17.839 0-1.34 0-2.25-.483-2.732-1.716V1.77C.696.322 1.125 0 2.732 0h18.536c1.66 0 2.464.804 2.518 2.467v3.218c.857-.43 1.178-.376 1.821.268l3.857 3.86c.268.269.429.644.643.966-.053.322-.053.59-.053.858zM11.946 1.073H2.68c-.215 0-.483-.054-.59.053-.321.215-.643.483-.857.805-.053.107.268.536.482.697 3.215 2.091 6.429 4.13 9.643 6.22.429.269.697.269 1.125 0 3.214-2.09 6.482-4.129 9.697-6.22.589-.376.589-.912 0-1.287a1.805 1.805 0 00-.911-.268h-9.322zm10.608 13.514c-1.233 0-2.358-.054-3.429 0-2.143.107-2.893-.43-2.786-2.842.054-1.77 0-1.77-1.5-2.628-.16-.108-.482-.108-.696 0-.59.321-1.125.697-1.714 1.072-.375.268-.643.268-1.018 0-.59-.375-1.125-.75-1.768-1.126a.58.58 0 00-.59 0 367.801 367.801 0 00-7.607 4.88c-.16.107-.267.483-.214.644.214.643.75.75 1.34.75H21.32c.536 0 .965-.107 1.233-.75zm2.196-7.884v1.341c0 .75-.107.912-.91.912h-5.411c-.858 0-1.018.16-1.018 1.072v2.414c0 .858.16 1.072 1.071 1.072h5.41c.804 0 .858.107.858.912v1.287l3.268-3.271c1.178-1.18 1.178-1.18 0-2.36C27 9.009 25.928 7.937 24.75 6.703zM8.304 8.205C5.946 6.65 3.589 5.202 1.232 3.647v9.116C3.59 11.208 5.946 9.76 8.304 8.205zm8.196.644c.429-.805 1.179-1.02 1.982-.966.536.054 1.125 0 1.66 0h2.412V3.7c-2.411 1.556-4.715 3.003-7.072 4.505.375.215.643.375 1.018.644z" fill="#fff"/></svg>