<svg width="24" height="24" fill="none" xmlns="http://www.w3.org/2000/svg"><path d="M3.266 3.148h0l-.008.008c-3.268 3.285-3.692 8.37-.95 11.957 2.113 2.872 6.405 5.19 11.485 2.861.695-.318 1.471-.212 1.931.279l.38.407c.486.52.977 1.048 1.5 1.574.512.514.988 1.024 1.47 1.542.195.209.391.42.591.631.69.731 1.845.785 2.573.054.767-.77.82-2.061.028-2.856a275.375 275.375 0 00-4.026-3.976c-.48-.463-.612-1.207-.343-1.873.92-2.276 1.145-4.475.675-6.445-.47-1.975-1.632-3.684-3.418-4.985-3.693-2.749-8.617-2.33-11.888.822zm6.55.21c3.458 0 6.222 2.88 6.222 6.388 0 3.624-2.752 6.387-6.35 6.387a6.33 6.33 0 01-6.351-6.387c0-3.613 2.868-6.388 6.48-6.388z" fill="#1D4076" stroke="#1D4076"/></svg>